<?xml version="1.0" encoding="UTF-8"?>
<svg width="256" height="256" viewBox="0 0 256 256" xmlns="http://www.w3.org/2000/svg">
  <defs>
    <linearGradient id="bg" x1="0" y1="0" x2="0" y2="1">
      <stop offset="0" stop-color="#f7d4ff"/>
      <stop offset="1" stop-color="#fcd9ef"/>
    </linearGradient>
    <linearGradient id="book" x1="0" y1="0" x2="1" y2="1">
      <stop offset="0" stop-color="#fef2d0"/>
      <stop offset="1" stop-color="#f5c9a4"/>
    </linearGradient>
  </defs>
  <rect width="256" height="256" rx="48" fill="url(#bg)"/>
  <rect x="60" y="70" width="140" height="138" rx="18" fill="url(#book)" stroke="#c6805d" stroke-width="6"/>
  <line x1="130" y1="70" x2="130" y2="208" stroke="#dfaa7c" stroke-width="6"/>
  <line x1="80" y1="96" x2="108" y2="96" stroke="#d8866c" stroke-width="5" stroke-linecap="round"/>
  <line x1="80" y1="118" x2="108" y2="118" stroke="#d8866c" stroke-width="5" stroke-linecap="round"/>
  <line x1="80" y1="140" x2="108" y2="140" stroke="#d8866c" stroke-width="5" stroke-linecap="round"/>
  <line x1="80" y1="162" x2="108" y2="162" stroke="#d8866c" stroke-width="5" stroke-linecap="round"/>
  <line x1="80" y1="184" x2="108" y2="184" stroke="#d8866c" stroke-width="5" stroke-linecap="round"/>
  <path d="M148 180 L208 120 L170 110 Z" fill="#2d8bff" stroke="#0f357a" stroke-width="5" stroke-linejoin="round"/>
  <path d="M190 146 L205 119 L174 130" fill="#58b4ff"/>
  <path d="M178 88 L188 72 L198 88 L216 91 L204 104 L207 122 L188 112 L169 122 L173 104 L160 92 Z"
        fill="#ffd86d" stroke="#d3952b" stroke-width="4" stroke-linejoin="round"/>
  <circle cx="196" cy="84" r="4" fill="#5c3b06"/>
  <circle cx="180" cy="84" r="4" fill="#5c3b06"/>
  <path d="M182 96 Q188 104 194 96" fill="none" stroke="#5c3b06" stroke-width="4" stroke-linecap="round"/>
</svg>
